<svg width="125" height="124" viewBox="0 0 125 124" fill="none" xmlns="http://www.w3.org/2000/svg">
<path d="M16 62H62.5V69.75H16V62ZM8.25 42.625H47V50.375H8.25V42.625Z" fill="#B7B7B7"/>
<path d="M116.436 64.3483L104.811 37.2232C104.513 36.5261 104.016 35.9318 103.383 35.5144C102.75 35.0969 102.008 34.8746 101.25 34.875H89.625V27.125C89.625 26.0973 89.2167 25.1117 88.49 24.385C87.7633 23.6583 86.7777 23.25 85.75 23.25H23.75V31H81.875V79.6545C80.1093 80.6798 78.564 82.0445 77.3283 83.67C76.0926 85.2954 75.1909 87.1494 74.6752 89.125H50.3247C49.3816 85.4722 47.1386 82.2888 44.0162 80.1714C40.8938 78.0541 37.1064 77.1482 33.3639 77.6235C29.6213 78.0989 26.1807 79.9229 23.6868 82.7536C21.1928 85.5843 19.8169 89.2274 19.8169 93C19.8169 96.7726 21.1928 100.416 23.6868 103.246C26.1807 106.077 29.6213 107.901 33.3639 108.376C37.1064 108.852 40.8938 107.946 44.0162 105.829C47.1386 103.711 49.3816 100.528 50.3247 96.875H74.6752C75.5182 100.201 77.446 103.15 80.1536 105.257C82.8613 107.364 86.1942 108.508 89.625 108.508C93.0558 108.508 96.3887 107.364 99.0964 105.257C101.804 103.15 103.732 100.201 104.575 96.875H112.875C113.903 96.875 114.888 96.4667 115.615 95.74C116.342 95.0133 116.75 94.0277 116.75 93V65.875C116.75 65.35 116.643 64.8306 116.436 64.3483ZM35.375 100.75C33.8422 100.75 32.3438 100.295 31.0693 99.4439C29.7949 98.5923 28.8015 97.3819 28.2149 95.9658C27.6284 94.5497 27.4749 92.9914 27.7739 91.4881C28.0729 89.9847 28.8111 88.6038 29.8949 87.5199C30.9788 86.4361 32.3597 85.6979 33.863 85.3989C35.3664 85.0999 36.9247 85.2534 38.3408 85.8399C39.7569 86.4265 40.9673 87.4198 41.8189 88.6943C42.6705 89.9688 43.125 91.4672 43.125 93C43.1229 95.0548 42.3058 97.0248 40.8528 98.4778C39.3998 99.9308 37.4298 100.748 35.375 100.75ZM89.625 42.625H98.6925L107 62H89.625V42.625ZM89.625 100.75C88.0922 100.75 86.5938 100.295 85.3193 99.4439C84.0448 98.5923 83.0515 97.3819 82.4649 95.9658C81.8784 94.5497 81.7249 92.9914 82.0239 91.4881C82.3229 89.9847 83.0611 88.6038 84.1449 87.5199C85.2288 86.4361 86.6097 85.6979 88.113 85.3989C89.6164 85.0999 91.1747 85.2534 92.5908 85.8399C94.0069 86.4265 95.2173 87.4198 96.0689 88.6943C96.9205 89.9688 97.375 91.4672 97.375 93C97.3729 95.0548 96.5558 97.0248 95.1028 98.4778C93.6498 99.9308 91.6798 100.748 89.625 100.75ZM109 89.125H104.575C103.721 85.8058 101.79 82.8637 99.0848 80.7599C96.3793 78.6561 93.0522 77.5095 89.625 77.5V69.75H109V89.125Z" fill="#B7B7B7"/>
</svg>
