<svg width="125" height="124" viewBox="0 0 125 124" fill="none" xmlns="http://www.w3.org/2000/svg">
<g clip-path="url(#clip0_1_157)">
<path d="M31.75 59.9678V93H64.7822L57.8933 86.1111H38.6389V66.8567L31.75 59.9678Z" fill="#B7B7B7"/>
<path d="M120.858 111.221L110.972 101.198V110.222H14.5278V95.9278H21.4167V90.4167H14.5278V67.5111H21.4167V62H14.5278V39.9556H21.4167V34.4445H14.5278V15.19L69.4322 69.7845V60.0711L13.5289 4.44336C13.0471 3.95759 12.4316 3.6263 11.7608 3.49173C11.09 3.35716 10.3943 3.4254 9.76245 3.68775C9.13058 3.9501 8.59116 4.39468 8.21296 4.9648C7.83476 5.53493 7.6349 6.20476 7.63888 6.88891V113.667C7.63888 114.58 8.00178 115.456 8.64774 116.102C9.2937 116.748 10.1698 117.111 11.0833 117.111H118.412C119.096 117.115 119.766 116.915 120.336 116.537C120.906 116.159 121.351 115.619 121.613 114.988C121.876 114.356 121.944 113.66 121.809 112.989C121.675 112.318 121.344 111.703 120.858 111.221Z" fill="#B7B7B7"/>
<path d="M83.4167 103.333H97.1944C99.0215 103.333 100.774 102.608 102.066 101.316C103.358 100.024 104.083 98.2715 104.083 96.4444V29.9667L96.1611 15.3966C95.5484 14.3351 94.6636 13.4563 93.5979 12.8508C92.5323 12.2454 91.3244 11.9351 90.0989 11.9522C88.8456 11.9622 87.6188 12.3138 86.5505 12.9693C85.4823 13.6248 84.6131 14.5593 84.0367 15.6722L76.5278 30.0355V96.4444C76.5278 98.2715 77.2536 100.024 78.5455 101.316C79.8374 102.608 81.5896 103.333 83.4167 103.333ZM83.4167 31.6889L90.0989 18.7033L97.1944 31.7233V82.6666H83.4167V31.6889ZM83.4167 88.2811H97.1944V96.6855H83.4167V88.2811Z" fill="#B7B7B7"/>
</g>
<defs>
<clipPath id="clip0_1_157">
<rect width="124" height="124" fill="white" transform="translate(0.75)"/>
</clipPath>
</defs>
</svg>
