<svg width="124" height="124" viewBox="0 0 124 124" fill="none" xmlns="http://www.w3.org/2000/svg">
<path fill-rule="evenodd" clip-rule="evenodd" d="M108.107 60.7084H94.1883C86.831 60.7084 81.3698 66.1799 81.3698 72.3334C81.3698 78.4869 86.831 83.9584 94.1832 83.9584H108.226C109.291 83.8912 109.75 83.173 109.787 82.739V61.9277C109.75 61.4937 109.291 60.7755 108.226 60.7135L108.107 60.7084ZM107.725 52.9584C108.066 52.9584 108.397 52.9584 108.707 52.979C113.202 53.2529 117.185 56.6474 117.521 61.3904C117.542 61.7004 117.542 62.0362 117.542 62.3462V82.3205C117.542 82.6305 117.542 82.9664 117.521 83.2764C117.185 88.0194 113.202 91.4139 108.701 91.6929C108.397 91.7084 108.066 91.7084 107.72 91.7084H94.1935C83.111 91.7084 73.625 83.297 73.625 72.3334C73.625 61.3697 83.111 52.9584 94.1883 52.9584H107.637H107.725Z" fill="#B7B7B7"/>
<path d="M98.1667 72.3333C98.1667 73.7036 97.6223 75.0177 96.6534 75.9867C95.6845 76.9556 94.3703 77.5 93 77.5C91.6297 77.5 90.3156 76.9556 89.3466 75.9867C88.3777 75.0177 87.8333 73.7036 87.8333 72.3333C87.8333 70.963 88.3777 69.6488 89.3466 68.6799C90.3156 67.711 91.6297 67.1666 93 67.1666C94.3703 67.1666 95.6845 67.711 96.6534 68.6799C97.6223 69.6488 98.1667 70.963 98.1667 72.3333Z" fill="#B7B7B7"/>
<path fill-rule="evenodd" clip-rule="evenodd" d="M107.725 52.9583C109.207 52.9023 110.683 53.185 112.039 53.785C111.486 45.4873 109.962 39.091 105.188 34.3118C101.318 30.4472 96.4152 28.7318 90.3598 27.9155L90.1428 27.8897C90.0887 27.8487 90.0336 27.809 89.9775 27.7708L70.6748 14.973C67.3266 12.7879 63.4148 11.6244 59.4166 11.6244C55.4185 11.6244 51.5067 12.7879 48.1585 14.973L28.861 27.7708C28.8031 27.809 28.7463 27.8486 28.6905 27.8897L28.4735 27.9155C22.4181 28.7318 17.515 30.4472 13.6451 34.3118C9.78048 38.1817 8.06515 43.0848 7.24881 49.1402C6.45831 55.0302 6.45831 62.5477 6.45831 72.044V72.6227C6.45831 82.119 6.45831 89.6417 7.24881 95.5265C8.06515 101.582 9.78048 106.485 13.6451 110.355C17.515 114.219 22.4181 115.935 28.4735 116.751C34.3635 117.542 41.881 117.542 51.3773 117.542H67.456C76.9523 117.542 84.475 117.542 90.3598 116.751C96.4152 115.935 101.318 114.219 105.188 110.355C109.962 105.576 111.486 99.1793 112.039 90.8765C110.995 91.3415 109.869 91.6205 108.701 91.6928C108.397 91.7083 108.066 91.7083 107.72 91.7083H104.201C103.612 98.642 102.284 102.3 99.7063 104.873C97.5208 107.059 94.5241 108.371 89.3265 109.068C84.0203 109.781 77.0195 109.792 67.1666 109.792H51.6666C41.8138 109.792 34.8181 109.781 29.5016 109.068C24.3091 108.371 21.3125 107.059 19.127 104.873C16.9415 102.688 15.6291 99.6908 14.9316 94.4932C14.2186 89.187 14.2083 82.1862 14.2083 72.3333C14.2083 62.4805 14.2186 55.4848 14.9316 50.1683C15.6291 44.9758 16.9415 41.9792 19.127 39.7937C21.3125 37.6082 24.3091 36.2958 29.5068 35.5983C34.8181 34.8853 41.8138 34.875 51.6666 34.875H67.1666C77.0195 34.875 84.0203 34.8853 89.3317 35.5983C94.5242 36.2958 97.5208 37.6082 99.7063 39.7937C102.284 42.3667 103.612 46.0298 104.201 52.9583H107.637H107.725ZM51.3773 27.125H67.456C70.1271 27.125 72.6382 27.125 74.9993 27.1405L66.3917 21.4313C62.2583 18.693 56.575 18.693 52.4416 21.4313L43.8288 27.1405C46.1951 27.125 48.7062 27.125 51.3721 27.125" fill="#B7B7B7"/>
<path d="M31 47.7916C29.9723 47.7916 28.9867 48.1999 28.26 48.9266C27.5333 49.6533 27.125 50.6389 27.125 51.6666C27.125 52.6943 27.5333 53.68 28.26 54.4067C28.9867 55.1334 29.9723 55.5416 31 55.5416H51.6667C52.6944 55.5416 53.68 55.1334 54.4067 54.4067C55.1334 53.68 55.5417 52.6943 55.5417 51.6666C55.5417 50.6389 55.1334 49.6533 54.4067 48.9266C53.68 48.1999 52.6944 47.7916 51.6667 47.7916H31Z" fill="#B7B7B7"/>
<path d="M98.1667 72.3333C98.1667 73.7036 97.6223 75.0177 96.6534 75.9867C95.6845 76.9556 94.3703 77.5 93 77.5C91.6297 77.5 90.3156 76.9556 89.3466 75.9867C88.3777 75.0177 87.8333 73.7036 87.8333 72.3333C87.8333 70.963 88.3777 69.6488 89.3466 68.6799C90.3156 67.711 91.6297 67.1666 93 67.1666C94.3703 67.1666 95.6845 67.711 96.6534 68.6799C97.6223 69.6488 98.1667 70.963 98.1667 72.3333Z" fill="#B7B7B7"/>
</svg>
