<svg width="125" height="124" viewBox="0 0 125 124" fill="none" xmlns="http://www.w3.org/2000/svg">
<path d="M106.006 44.5891C104.773 45.814 103.106 46.5014 101.368 46.5014C99.6303 46.5014 97.963 45.814 96.7302 44.5891L91.2859 39.1423C90.0606 37.9102 89.3728 36.2432 89.3728 34.5056C89.3728 32.768 90.0606 31.101 91.2859 29.8689L103.611 17.544C103.635 17.5203 103.652 17.4912 103.662 17.4592C103.672 17.4272 103.674 17.3932 103.668 17.3603C103.661 17.3273 103.647 17.2964 103.626 17.2702C103.605 17.244 103.579 17.2232 103.548 17.2098C95.5944 13.8046 85.2796 15.5363 78.7309 22.039C72.4631 28.2608 72.107 37.6044 74.403 45.7734C74.7292 46.9338 74.7284 48.1618 74.4006 49.3217C74.0728 50.4816 73.4308 51.5284 72.5454 52.3464L30.647 91.2804C29.6469 92.1759 28.84 93.2659 28.2756 94.4838C27.7112 95.7018 27.4011 97.022 27.3643 98.3639C27.3275 99.7057 27.5647 101.041 28.0615 102.288C28.5583 103.535 29.3043 104.668 30.2537 105.617C31.2031 106.566 32.3361 107.311 33.5834 107.807C34.8307 108.303 36.1661 108.54 37.508 108.502C38.8498 108.465 40.1699 108.154 41.3875 107.589C42.6052 107.024 43.6948 106.216 44.5897 105.216L83.8604 63.2448C84.6695 62.3741 85.7007 61.7403 86.843 61.4117C87.9854 61.0832 89.1957 61.0722 90.3438 61.38C98.4474 63.5451 107.658 63.1382 113.853 57.0351C120.511 50.4767 121.947 38.8856 118.721 32.2521C118.706 32.223 118.685 32.1977 118.659 32.1785C118.632 32.1592 118.602 32.1465 118.57 32.1413C118.538 32.1361 118.505 32.1386 118.474 32.1486C118.443 32.1586 118.415 32.1758 118.391 32.1988L106.006 44.5891Z" stroke="#B7B7B7" stroke-width="6" stroke-miterlimit="10" stroke-linecap="round"/>
<path d="M54.5 68.7813C50.2666 64.6641 48.3266 62.7484 46.9922 61.4454C46.3243 60.7819 45.8859 59.9225 45.7409 58.9923C45.5958 58.0622 45.7516 57.11 46.1857 56.2747C46.4145 55.8639 46.6999 55.4873 47.0334 55.1558L50.8309 51.4527C51.2238 51.0591 51.6861 50.7413 52.1944 50.5155C52.9968 50.1603 53.8873 50.054 54.7508 50.2103C55.6143 50.3666 56.4111 50.7783 57.0381 51.3922C58.358 52.6734 60.7751 55.025 65.1296 59.2681M77.0404 70.5492C86.958 79.7766 98.9874 90.7162 103.681 94.6251C104.032 94.9144 104.319 95.2741 104.522 95.6808C104.726 96.0876 104.842 96.5324 104.864 96.9868C104.885 97.4412 104.811 97.8951 104.647 98.3192C104.482 98.7433 104.231 99.1283 103.909 99.4495L95.8244 107.531C95.4954 107.853 95.1044 108.104 94.6752 108.27C94.246 108.435 93.7876 108.512 93.3279 108.494C92.8682 108.477 92.4168 108.367 92.0012 108.169C91.5856 107.972 91.2145 107.692 90.9105 107.347C86.9071 102.702 76.1152 91.094 66.8685 81.4331" stroke="#B7B7B7" stroke-width="6" stroke-linecap="round" stroke-linejoin="round"/>
<path d="M4.44952 46.8633L11.5723 39.9028C11.6811 39.7959 11.8102 39.7118 11.9521 39.6557C12.0939 39.5995 12.2456 39.5724 12.3981 39.5759C12.7056 39.5726 13.0021 39.6899 13.224 39.9028C13.4819 40.158 13.7946 40.351 14.1383 40.4673C14.482 40.5835 14.8476 40.6199 15.2075 40.5737C16.1351 40.472 17.1256 40.1862 17.7674 39.5759C19.2205 38.1712 17.5398 35.403 18.8185 33.6326C20.2807 31.6945 21.8817 29.8652 23.609 28.1592C25.0621 26.7351 30.8358 21.3004 40.5379 17.3939C43.6406 16.1398 46.9563 15.4967 50.3029 15.5C55.7739 15.5 59.9904 17.9219 61.5065 19.2951C62.4164 20.1609 63.2495 21.1041 63.9962 22.1142C63.267 21.8454 62.5221 21.6214 61.7656 21.4433C60.1746 21.1058 58.5427 21.003 56.9219 21.1381C53.6935 21.4021 49.7991 22.8964 47.7187 24.5288C44.3523 27.1928 42.9065 30.7578 42.6788 35.357C42.5141 38.7767 43.3376 40.7093 51.4218 48.7959C51.6981 49.1044 51.8439 49.508 51.8285 49.9218C51.8132 50.3356 51.6378 50.7273 51.3394 51.0144L46.9268 55.3738C46.6192 55.6754 46.2067 55.8461 45.7759 55.8502C45.3452 55.8542 44.9296 55.6913 44.6163 55.3956C39.3027 50.082 35.7401 47.3816 33.7179 46.1537C31.6956 44.9258 30.0681 44.5795 29.2858 44.4947C27.7495 44.3425 26.2037 44.6699 24.8611 45.432C24.6255 45.5614 24.4101 45.7246 24.2217 45.9163C23.9073 46.2414 23.6603 46.6255 23.4951 47.0464C23.3299 47.4674 23.2497 47.917 23.2591 48.3691C23.2686 48.8212 23.3675 49.267 23.5502 49.6807C23.7329 50.0944 23.9957 50.4679 24.3234 50.7795L24.7376 51.167C24.8451 51.2715 24.9305 51.3965 24.9889 51.5346C25.0473 51.6727 25.0773 51.8211 25.0773 51.971C25.0773 52.121 25.0473 52.2694 24.9889 52.4075C24.9305 52.5456 24.8451 52.6706 24.7376 52.7751L17.6221 59.7235C17.5143 59.8326 17.3856 59.9189 17.2437 59.9771C17.1018 60.0354 16.9496 60.0644 16.7962 60.0625C16.4888 60.0656 16.1924 59.9482 15.9704 59.7356L4.44952 48.4908C4.24101 48.2712 4.12476 47.9799 4.12476 47.677C4.12476 47.3742 4.24101 47.0829 4.44952 46.8633Z" stroke="#B7B7B7" stroke-width="6" stroke-linecap="round" stroke-linejoin="round"/>
</svg>
