<svg width="125" height="124" viewBox="0 0 125 124" fill="none" xmlns="http://www.w3.org/2000/svg">
<path d="M93.5 89.125H99.3125C101.879 89.1173 104.339 88.0942 106.154 86.2791C107.969 84.464 108.992 82.0044 109 79.4375V40.6875C108.992 38.1206 107.969 35.661 106.154 33.8459C104.339 32.0308 101.879 31.0077 99.3125 31H25.6875C23.1206 31.0077 20.661 32.0308 18.8459 33.8459C17.0308 35.661 16.0077 38.1206 16 40.6875V79.4375C16.0077 82.0044 17.0308 84.464 18.8459 86.2791C20.661 88.0942 23.1206 89.1173 25.6875 89.125H31.5" stroke="#B7B7B7" stroke-width="6" stroke-linejoin="round"/>
<path d="M87.61 58.125H37.39C34.137 58.125 31.5 60.762 31.5 64.015V102.61C31.5 105.863 34.137 108.5 37.39 108.5H87.61C90.863 108.5 93.5 105.863 93.5 102.61V64.015C93.5 60.762 90.863 58.125 87.61 58.125Z" stroke="#B7B7B7" stroke-width="6" stroke-linejoin="round"/>
<path d="M93.5 31V25.1875C93.4923 22.6206 92.4692 20.161 90.6541 18.3459C88.839 16.5308 86.3794 15.5077 83.8125 15.5H41.1875C38.6206 15.5077 36.161 16.5308 34.3459 18.3459C32.5308 20.161 31.5077 22.6206 31.5 25.1875V31" stroke="#B7B7B7" stroke-width="6" stroke-linejoin="round"/>
<path d="M95.4375 50.375C98.6477 50.375 101.25 47.7727 101.25 44.5625C101.25 41.3523 98.6477 38.75 95.4375 38.75C92.2273 38.75 89.625 41.3523 89.625 44.5625C89.625 47.7727 92.2273 50.375 95.4375 50.375Z" fill="#B7B7B7"/>
</svg>
